<svg xmlns="http://www.w3.org/2000/svg" width="1024" height="1024" viewBox="0 0 100 100">
  <defs>
    <linearGradient id="bg" x1="0" y1="0" x2="0" y2="1"><stop offset="0" stop-color="#11131a"></stop><stop offset="1" stop-color="#070809"></stop></linearGradient>
    <radialGradient id="gl" cx="0.5" cy="0.16" r="0.9"><stop offset="0" stop-color="#ffffff" stop-opacity="0.14"></stop><stop offset="0.5" stop-color="#ffffff" stop-opacity="0"></stop></radialGradient>
    
  </defs>
  <rect x="0" y="0" width="100" height="100" rx="23.5" fill="url(#bg)"></rect>
  <rect x="0" y="0" width="100" height="100" rx="23.5" fill="url(#gl)"></rect>
  <g fill="none" stroke="#ffffff" stroke-width="7.5" stroke-linecap="round">
    <path d="M 22 65 C 31 58, 41 72, 50 65 C 59 58, 69 58, 78 65"></path>
    <path d="M 22 50 C 31 42, 41 58, 50 50 C 59 42, 69 42, 78 50" opacity="0.78"></path>
    <path d="M 22 35 C 31 28, 41 42, 50 35 C 59 28, 69 28, 78 35" opacity="0.5"></path>
  </g>
</svg>