<svg xmlns="http://www.w3.org/2000/svg" width="366" height="100" viewBox="0 0 366 100"><g><defs><linearGradient id="bg" x1="0" y1="0" x2="0" y2="1"><stop offset="0" stop-color="#13243f"></stop><stop offset="1" stop-color="#0a1220"></stop></linearGradient><radialGradient id="gl" cx="0.5" cy="0.16" r="0.9"><stop offset="0" stop-color="#ffffff" stop-opacity="0.14"></stop><stop offset="0.5" stop-color="#ffffff" stop-opacity="0"></stop></radialGradient><linearGradient id="h" x1="0" y1="1" x2="0" y2="0"><stop offset="0" stop-color="#2f6cf0"></stop><stop offset="0.5" stop-color="#9a55b8"></stop><stop offset="1" stop-color="#ffb24a"></stop></linearGradient></defs><rect x="0" y="0" width="100" height="100" rx="23.5" fill="url(#bg)"></rect><rect x="0" y="0" width="100" height="100" rx="23.5" fill="url(#gl)"></rect><g fill="none" stroke="url(#h)" stroke-width="7.5" stroke-linecap="round"><path d="M 22 65 C 31 58, 41 72, 50 65 C 59 58, 69 58, 78 65"></path><path d="M 22 50 C 31 42, 41 58, 50 50 C 59 42, 69 42, 78 50"></path><path d="M 22 35 C 31 28, 41 42, 50 35 C 59 28, 69 28, 78 35"></path></g></g><text x="128" y="68" font-family="Helvetica Neue, Helvetica, Arial, sans-serif" font-weight="300" font-size="62" letter-spacing="-0.8" fill="#0e1b2e">Fervent</text><circle cx="348.5" cy="62" r="7" fill="#f06a2a"></circle></svg>